[img]http://img338.imageshack.us/img338/2515/silenthillrevelation.jpg[/img]

[b][size=200][color=black]PLOT[/color][/size][/b]

[code]When her father disappears, Heather Mason is drawn into a 
strange and terrifying alternate reality that holds answers to the 
horrific nightmares that have plagued her since childhood.[/code]

[b][size=200][color=black]IMDB[/color][/size][/b]

[code]http://www.imdb.com/title/tt0938330/[/code]

[b][size=200][color=black]MOVIE INFO[/color][/size][/b]

[code]Silent Hill Revelation [2012] BRRip x264 AAC-V3nom

Format                                   : MPEG-4
Format profile                           : Base Media / Version 2
Codec ID                                 : mp42
File size                                : 329 MiB
Duration                                 : 1h 34mn
Overall bit rate mode                    : Variable
Overall bit rate                         : 486 Kbps
Encoded date                             : UTC 2013-02-02 11:41:14
Tagged date                              : UTC 2013-02-02 12:16:19

Video
ID                                       : 1
Format                                   : AVC
Format/Info                              : Advanced Video Codec
Format profile                           : Main@L2.1
Format settings, CABAC                   : Yes
Format settings, ReFrames                : 4 frames
Codec ID                                 : avc1
Codec ID/Info                            : Advanced Video Coding
Duration                                 : 1h 34mn
Bit rate mode                            : Variable
Bit rate                                 : 387 Kbps
Width                                    : 640 pixels
Height                                   : 272 pixels
Display aspect ratio                     : 2.35:1
Frame rate mode                          : Variable
Frame rate                               : 23.976 fps
Minimum frame rate                       : 23.974 fps
Maximum frame rate                       : 90 000.000 fps
Color space                              : YUV
Chroma subsampling                       : 4:2:0
Bit depth                                : 8 bits
Scan type                                : Progressive
Bits/(Pixel*Frame)                       : 0.093
Stream size                              : 261 MiB (79%)
Writing library                          : x264 core 112

Audio
ID                                       : 2
Format                                   : AAC
Format/Info                              : Advanced Audio Codec
Format profile                           : LC
Codec ID                                 : 40
Duration                                 : 1h 34mn
Bit rate mode                            : Variable
Bit rate                                 : 96.0 Kbps
Maximum bit rate                         : 114 Kbps
Channel(s)                               : 2 channels
Channel positions                        : Front: L R
Sampling rate                            : 48.0 KHz
Compression mode                         : Lossy
Delay relative to video                  : 83ms
Stream size                              : 65.1 MiB (20%)
Encoded date                             : UTC 2013-02-02 11:41:14
Tagged date                              : UTC 2013-02-02 12:16:14[/code]

[b][size=200][color=black]SOURCE[/color][/size][/b]

[code]Silent Hill Revelation[2012]BRRip XviD-ETRG(Thanks)[/code]

[b][size=200][color=black]SCREENSHOTS[/color][/size][/b]

[img]http://img688.imageshack.us/img688/117/silenthillrevelation201.jpg[/img]

[img]http://kastatic.com/i2/users/133df62bbf28e62494bb17fe11078f1a.gif[/img][img]http://kastatic.com/i2/users/133df62bbf28e62494bb17fe11078f1a.gif[/img]